HIERARCHY
ROOT Hips
{
	OFFSET 0.000000 0.000000 0.000000
	CHANNELS 6 Xposition Yposition Zposition Zrotation Yrotation Xrotation 
	JOINT LHipJoint
	{
		OFFSET 0.000000 0.000000 0.000000
		CHANNELS 3 Zrotation Yrotation Xrotation
		JOINT LeftUpLeg
		{
			OFFSET 1.363060 -1.794630 0.839290
			CHANNELS 3 Zrotation Yrotation Xrotation
			JOINT LeftLeg
			{
				OFFSET 2.448110 -6.726130 0.000000
				CHANNELS 3 Zrotation Yrotation Xrotation
				JOINT LeftFoot
				{
					OFFSET 2.562200 -7.039590 0.000000
					CHANNELS 3 Zrotation Yrotation Xrotation
					JOINT LeftToeBase
					{
						OFFSET 0.157640 -0.433110 2.322550
						CHANNELS 3 Zrotation Yrotation Xrotation
						End Site
						{
							OFFSET 0.000000 0.000000 0.000000
						}
					}
				}
			}
		}
	}
	JOINT RHipJoint
	{
		OFFSET 0.000000 0.000000 0.000000
		CHANNELS 3 Zrotation Yrotation Xrotation
		JOINT RightUpLeg
		{
			OFFSET -1.305520 -1.794630 0.839290
			CHANNELS 3 Zrotation Yrotation Xrotation
			JOINT RightLeg
			{
				OFFSET -2.542530 -6.985550 0.000000
				CHANNELS 3 Zrotation Yrotation Xrotation
				JOINT RightFoot
				{
					OFFSET -2.568260 -7.056230 0.000000
					CHANNELS 3 Zrotation Yrotation Xrotation
					JOINT RightToeBase
					{
						OFFSET -0.164730 -0.452590 2.363150
						CHANNELS 3 Zrotation Yrotation Xrotation
						End Site
						{
							OFFSET 0.000000 0.000000 0.000000
						}
					}
				}
			}
		}
	}
}
MOTION
Frames: 11
Frame Time: 0.008333
5.464306 17.257843 -1.797885 66.778990 -87.526545 -31.213049 -6.917511 -0.733533 8.607117 -1.464021 -16.249423 -101.684104 -4.972113 -1.733812 1.330917 0.191773 6.303788 18.228157 4.739700 -0.000000 -48.607200 9.065041 0.921069 -0.559598 13.320625 3.222434 -32.842034 3.359943 2.701652 -5.185343 -1.012044 -6.075533 1.052070 -1.933900 0.000000 -47.965300
5.474067 17.257720 -1.801936 73.028197 -88.040225 -37.640968 -6.991656 -0.871796 8.305000 -1.241443 -15.104597 -100.537585 -4.805747 -1.392117 1.937389 -0.157084 4.870866 21.205424 4.123300 -0.000000 -47.097400 9.147546 0.859536 -0.548770 13.806707 3.128662 -33.043966 3.478951 2.606779 -4.595486 -0.866059 -5.263324 1.048550 -1.755600 0.000000 -48.199300
5.477004 17.262092 -1.810728 80.546798 -88.343264 -45.339975 -7.001392 -1.027484 8.027045 -1.114316 -14.116169 -98.987394 -4.754728 -1.211112 1.868782 -0.557914 2.790115 23.448847 2.989200 0.000000 -45.731000 9.250973 0.790733 -0.524319 14.187525 2.878902 -33.239126 3.583127 2.512150 -4.098415 -0.715396 -4.421855 1.078089 -1.575000 0.000000 -48.326900
5.472918 17.269966 -1.823739 88.325231 -88.433152 -53.265850 -6.967217 -1.187570 7.799348 -0.988790 -13.306907 -97.141039 -4.779858 -1.180330 1.221082 -0.939243 0.482284 24.826014 1.621500 0.000000 -44.819000 9.352735 0.720303 -0.464484 14.393931 2.601177 -33.399127 3.653123 2.436856 -3.803203 -0.583709 -3.700544 1.187860 -1.428500 -0.000000 -48.476300
5.462556 17.280280 -1.839673 95.144519 -88.348992 -60.204463 -6.903473 -1.328430 7.628099 -0.825580 -12.676703 -95.092410 -4.838082 -1.269736 0.181805 -1.256428 -1.667801 25.314473 0.322800 -0.000001 -44.553100 9.445077 0.658094 -0.378152 14.436560 2.322365 -33.510380 3.692153 2.385158 -3.685032 -0.473189 -3.108608 1.346037 -1.313100 -0.000000 -48.597000
5.446800 17.291985 -1.857151 100.393966 -88.144554 -65.553843 -6.816840 -1.434830 7.511088 -0.583431 -12.213680 -92.914832 -4.886524 -1.448183 -1.075746 -1.478996 -3.313579 25.003064 -0.638701 0.000000 -44.974900 9.533224 0.613715 -0.269865 14.328511 2.080980 -33.553929 3.700138 2.357734 -3.723323 -0.388357 -2.669016 1.531326 -1.231000 -0.000000 -48.687800
5.426400 17.304085 -1.874617 104.115498 -87.869313 -69.363408 -6.716488 -1.505276 7.443553 -0.218174 -11.907427 -90.661501 -4.886950 -1.685195 -2.410705 -1.584779 -4.188821 24.059658 -1.090000 0.000001 -46.038100 9.620872 0.589470 -0.142918 14.089137 1.910782 -33.519727 3.677119 2.351237 -3.889060 -0.333284 -2.399478 1.722265 -1.184500 0.000000 -48.747900
5.402538 17.315776 -1.891232 106.641190 -87.554027 -71.994570 -6.611615 -1.535923 7.396815 0.129735 -11.749558 -88.415614 -4.843024 -1.929584 -3.564617 -1.584774 -4.323162 22.607766 -1.073099 -0.000000 -47.462699 9.709827 0.581888 -0.005426 13.742030 1.810294 -33.391158 3.625731 2.358490 -4.134380 -0.307091 -2.285415 1.885667 -1.168500 -0.000001 -48.786500
5.375689 17.326249 -1.905135 108.387227 -87.230434 -73.857300 -6.519230 -1.536955 7.373491 0.508608 -11.722660 -86.215364 -4.732379 -2.162000 -4.484896 -1.465272 -3.657608 20.876313 -0.622000 -0.000000 -49.034200 9.790818 0.582522 0.145468 13.314474 1.811894 -33.188634 3.548926 2.375018 -4.424908 -0.312197 -2.337485 2.011400 -1.186100 -0.000001 -48.797700
5.356083 17.339318 -1.931591 118.149843 -86.520222 -83.773357 -6.412121 -1.644389 7.109735 0.128260 -11.237979 -83.836919 -4.696740 -2.345559 -5.024947 -1.263827 -2.547757 18.841742 0.015600 0.000000 -50.721700 9.904183 0.578328 0.497196 12.172552 2.700511 -32.983926 3.292258 2.337807 -4.584650 -0.411742 -2.823844 2.085306 -1.289700 0.000001 -48.811900
5.325613 17.346349 -1.938277 118.655657 -86.221201 -84.476726 -6.367907 -1.579797 7.057181 0.108930 -11.348060 -81.883771 -4.531974 -2.455901 -5.016246 -0.984513 -1.030514 16.954134 0.767400 0.000000 -51.556600 9.960979 0.574853 0.661140 11.677041 2.868999 -32.638654 3.185034 2.355987 -4.836466 -0.465131 -3.113041 2.090073 -1.351899 0.000000 -48.834200
